<svg data-v-0dd9719b="" version="1.0" xmlns="http://www.w3.org/2000/svg" xmlns:xlink="http://www.w3.org/1999/xlink" width="100%" height="100%" viewBox="0 0 340.000000 250.000000" preserveAspectRatio="xMidYMid meet" color-interpolation-filters="sRGB" style="margin: auto;"> <rect data-v-0dd9719b="" x="0" y="0" width="100%" height="100%" fill="#fff" fill-opacity="1" class="background"></rect> <rect data-v-0dd9719b="" x="0" y="0" width="100%" height="100%" fill="url(#watermark)" fill-opacity="1" class="watermarklayer"></rect> <g data-v-0dd9719b="" fill="#333" class="icon-text-wrapper icon-svg-group iconsvg" transform="translate(48.42500305175781,95.46575355529785)"><g class="iconsvg-imagesvg" transform="translate(0,0)"><g><rect fill="#333" fill-opacity="0" stroke-width="2" x="0" y="0" width="60" height="59.06848991405534" class="image-rect"></rect> <svg x="0" y="0" width="60" height="59.06848991405534" filtersec="colorsb9357575582" class="image-svg-svg primary" style="overflow: visible;"><svg xmlns="http://www.w3.org/2000/svg" viewBox="0.4385022521018982 -0.000009216904800268821 101.5615005493164 99.98497772216797"><path d="M69.3 59.41l-9.89 9.89L51 77.73 30.46 98.26A6 6 0 0 1 22 89.83L42.56 69.3 51 60.88l9.9-9.9zM102 24.28a6 6 0 0 1-1.75 4.21L77.72 51l-8.42-8.44 22.5-22.5a6 6 0 0 1 10.2 4.22z" fill="#0059cc"></path><path d="M83.64 6a5.94 5.94 0 0 1-1.74 4.21L41.08 51l-8.42-8.42 9.9-9.89L51 24.24 73.48 1.75A6 6 0 0 1 83.64 6zM32.66 59.41L12.13 79.93a6 6 0 0 1-8.42-8.42L24.24 51z" fill="#00dac7"></path><path d="M51 24.24l-8.42 8.43-22.5-22.5A6 6 0 0 1 24.28 0a5.89 5.89 0 0 1 4.2 1.75zM98.25 79.93a5.94 5.94 0 0 1-8.42 0L51 41.09l8.42-8.42 9.9 9.89 8.4 8.44 20.53 20.51a6 6 0 0 1 0 8.42z" fill="#00baec"></path><path d="M51 60.88l-8.44 8.42L1.74 28.49a6 6 0 0 1 8.43-8.43l22.49 22.5L41.08 51zM79.93 98.26a6 6 0 0 1-8.42 0L51 77.73l8.42-8.43 20.51 20.53a6 6 0 0 1 0 8.43z" fill="#00abd8"></path></svg></svg> <!----></g></g> <g transform="translate(67,18.84924602508545)"><g data-gra="path-name" fill-rule="" class="tp-name iconsvg-namesvg"><g transform="scale(1)"><g><path d="M4.08 0Q3.22 0 2.73-0.47 2.25-0.95 2.25-1.8L2.25-1.8 2.25-19.03Q2.25-19.89 2.73-20.36 3.22-20.83 4.08-20.83L4.08-20.83 14.74-20.83Q15.6-20.83 16.07-20.45 16.55-20.06 16.55-19.35L16.55-19.35Q16.55-18.61 16.07-18.22 15.6-17.82 14.74-17.82L14.74-17.82 5.97-17.82 5.97-12.08 14.15-12.08Q15.01-12.08 15.48-11.7 15.96-11.32 15.96-10.58L15.96-10.58Q15.96-9.87 15.48-9.48 15.01-9.1 14.15-9.1L14.15-9.1 5.97-9.1 5.97-3.01 14.74-3.01Q15.6-3.01 16.07-2.61 16.55-2.22 16.55-1.48L16.55-1.48Q16.55-0.77 16.07-0.38 15.6 0 14.74 0L14.74 0 4.08 0ZM35.63-2.72Q36.11-2.16 36.11-1.6L36.11-1.6Q36.11-0.89 35.56-0.35 35.01 0.18 34.3 0.18L34.3 0.18Q33.57 0.18 33-0.47L33-0.47 27.01-7.92 20.98-0.47Q20.45 0.15 19.71 0.15L19.71 0.15Q19 0.15 18.45-0.37 17.91-0.89 17.91-1.6L17.91-1.6Q17.91-2.19 18.35-2.72L18.35-2.72 24.79-10.58 18.61-18.11Q18.17-18.59 18.17-19.24L18.17-19.24Q18.17-19.94 18.7-20.46 19.24-20.98 19.94-20.98L19.94-20.98Q20.68-20.98 21.24-20.33L21.24-20.33 27.01-13.21 32.77-20.33Q33.3-20.98 34.04-20.98L34.04-20.98Q34.75-20.98 35.29-20.46 35.84-19.94 35.84-19.24L35.84-19.24Q35.84-18.59 35.4-18.11L35.4-18.11 29.22-10.58 35.63-2.72ZM40.95 0.18Q40.1 0.18 39.58-0.34 39.06-0.86 39.06-1.74L39.06-1.74 39.06-19.03Q39.06-19.89 39.55-20.36 40.04-20.83 40.89-20.83L40.89-20.83 48.16-20.83Q51.5-20.83 53.36-19.16 55.22-17.49 55.22-14.48L55.22-14.48Q55.22-11.46 53.36-9.78 51.5-8.1 48.16-8.1L48.16-8.1 42.87-8.1 42.87-1.74Q42.87-0.86 42.36-0.34 41.84 0.18 40.95 0.18L40.95 0.18ZM47.69-11.02Q51.62-11.02 51.62-14.45L51.62-14.45Q51.62-17.88 47.69-17.88L47.69-17.88 42.87-17.88 42.87-11.02 47.69-11.02ZM67.54 0.27Q64.5 0.27 62.27-1.03 60.04-2.33 58.83-4.76 57.62-7.18 57.62-10.43L57.62-10.43Q57.62-13.68 58.81-16.09 60.01-18.5 62.26-19.8 64.5-21.1 67.54-21.1L67.54-21.1Q70.59-21.1 72.82-19.8 75.05-18.5 76.25-16.09 77.44-13.68 77.44-10.43L77.44-10.43Q77.44-7.18 76.23-4.76 75.02-2.33 72.79-1.03 70.56 0.27 67.54 0.27L67.54 0.27ZM67.54-2.78Q70.41-2.78 72.02-4.76 73.63-6.74 73.63-10.43L73.63-10.43Q73.63-14.12 72.02-16.09 70.41-18.05 67.54-18.05L67.54-18.05Q64.65-18.05 63.04-16.09 61.43-14.12 61.43-10.43L61.43-10.43Q61.43-6.74 63.04-4.76 64.65-2.78 67.54-2.78L67.54-2.78ZM97.95-2.39Q98.3-1.86 98.3-1.36L98.3-1.36Q98.3-0.68 97.76-0.24 97.21 0.21 96.47 0.21L96.47 0.21Q96 0.21 95.57-0.01 95.14-0.24 94.85-0.68L94.85-0.68 90.92-6.65Q90.33-7.59 89.66-7.98 89-8.36 87.93-8.36L87.93-8.36 85.04-8.36 85.04-1.74Q85.04-0.86 84.53-0.34 84.03 0.18 83.17 0.18L83.17 0.18Q82.32 0.18 81.8-0.34 81.28-0.86 81.28-1.74L81.28-1.74 81.28-19.03Q81.28-19.89 81.77-20.36 82.26-20.83 83.12-20.83L83.12-20.83 90.5-20.83Q94.05-20.83 95.89-19.25 97.74-17.67 97.74-14.68L97.74-14.68Q97.74-12.26 96.37-10.71 94.99-9.16 92.48-8.72L92.48-8.72Q93.34-8.51 93.99-7.98 94.64-7.45 95.26-6.5L95.26-6.5 97.95-2.39ZM89.97-11.29Q92.13-11.29 93.13-12.1 94.14-12.91 94.14-14.6L94.14-14.6Q94.14-16.31 93.13-17.09 92.13-17.88 89.97-17.88L89.97-17.88 85.01-17.88 85.01-11.29 89.97-11.29ZM108.05 0.15Q107.17 0.15 106.65-0.37 106.13-0.89 106.13-1.74L106.13-1.74 106.13-17.7 100.76-17.7Q98.98-17.7 98.98-19.26L98.98-19.26Q98.98-20.83 100.76-20.83L100.76-20.83 115.32-20.83Q117.09-20.83 117.09-19.26L117.09-19.26Q117.09-17.7 115.32-17.7L115.32-17.7 109.94-17.7 109.94-1.74Q109.94-0.89 109.43-0.37 108.91 0.15 108.05 0.15L108.05 0.15ZM121.23 0.18Q120.37 0.18 119.86-0.34 119.34-0.86 119.34-1.74L119.34-1.74 119.34-19.03Q119.34-19.89 119.83-20.36 120.32-20.83 121.17-20.83L121.17-20.83 128.44-20.83Q131.78-20.83 133.64-19.16 135.5-17.49 135.5-14.48L135.5-14.48Q135.5-11.46 133.64-9.78 131.78-8.1 128.44-8.1L128.44-8.1 123.15-8.1 123.15-1.74Q123.15-0.86 122.63-0.34 122.12 0.18 121.23 0.18L121.23 0.18ZM127.97-11.02Q131.9-11.02 131.9-14.45L131.9-14.45Q131.9-17.88 127.97-17.88L127.97-17.88 123.15-17.88 123.15-11.02 127.97-11.02ZM155.51-2.39Q155.86-1.86 155.86-1.36L155.86-1.36Q155.86-0.68 155.31-0.24 154.77 0.21 154.03 0.21L154.03 0.21Q153.56 0.21 153.13-0.01 152.7-0.24 152.4-0.68L152.4-0.68 148.47-6.65Q147.88-7.59 147.22-7.98 146.55-8.36 145.49-8.36L145.49-8.36 142.59-8.36 142.59-1.74Q142.59-0.86 142.09-0.34 141.59 0.18 140.73 0.18L140.73 0.18Q139.88 0.18 139.36-0.34 138.84-0.86 138.84-1.74L138.84-1.74 138.84-19.03Q138.84-19.89 139.33-20.36 139.82-20.83 140.67-20.83L140.67-20.83 148.06-20.83Q151.61-20.83 153.45-19.25 155.3-17.67 155.3-14.68L155.3-14.68Q155.3-12.26 153.92-10.71 152.55-9.16 150.04-8.72L150.04-8.72Q150.9-8.51 151.55-7.98 152.2-7.45 152.82-6.5L152.82-6.5 155.51-2.39ZM147.53-11.29Q149.68-11.29 150.69-12.1 151.69-12.91 151.69-14.6L151.69-14.6Q151.69-16.31 150.69-17.09 149.68-17.88 147.53-17.88L147.53-17.88 142.56-17.88 142.56-11.29 147.53-11.29ZM168.51 0.27Q165.46 0.27 163.23-1.03 161-2.33 159.79-4.76 158.58-7.18 158.58-10.43L158.58-10.43Q158.58-13.68 159.78-16.09 160.97-18.5 163.22-19.8 165.46-21.1 168.51-21.1L168.51-21.1Q171.55-21.1 173.78-19.8 176.01-18.5 177.21-16.09 178.4-13.68 178.4-10.43L178.4-10.43Q178.4-7.18 177.19-4.76 175.98-2.33 173.75-1.03 171.52 0.27 168.51 0.27L168.51 0.27ZM168.51-2.78Q171.37-2.78 172.98-4.76 174.59-6.74 174.59-10.43L174.59-10.43Q174.59-14.12 172.98-16.09 171.37-18.05 168.51-18.05L168.51-18.05Q165.61-18.05 164-16.09 162.39-14.12 162.39-10.43L162.39-10.43Q162.39-6.74 164-4.76 165.61-2.78 168.51-2.78L168.51-2.78Z" transform="translate(-2.25, 21.100000381469727)"></path></g> <!----> <!----> <!----> <!----> <!----> <!----> <!----></g></g> <!----></g></g><defs v-gra="od"></defs></svg>